<?xml version="1.0" standalone="no"?>
<!DOCTYPE svg PUBLIC "-//W3C//DTD SVG 20010904//EN"
 "http://www.w3.org/TR/2001/REC-SVG-20010904/DTD/svg10.dtd">
<svg version="1.0" xmlns="http://www.w3.org/2000/svg"
 width="512.000000pt" height="512.000000pt" viewBox="0 0 512.000000 512.000000"
 preserveAspectRatio="xMidYMid meet">
<metadata>
Created by potrace 1.14, written by Peter Selinger 2001-2017
</metadata>
<g transform="translate(0.000000,512.000000) scale(0.100000,-0.100000)"
fill="#000000" stroke="none">
<path d="M2407 5110 c-92 -24 -175 -83 -257 -185 l-53 -65 -111 0 c-148 0
-177 -15 -316 -152 -78 -77 -115 -123 -143 -175 -63 -120 -67 -154 -67 -555
l0 -358 -35 -46 c-56 -73 -70 -135 -70 -309 0 -135 3 -160 28 -245 41 -138 90
-233 150 -294 29 -28 60 -55 69 -61 13 -8 24 -47 43 -163 14 -84 35 -177 46
-206 21 -58 85 -162 112 -185 23 -18 24 -137 2 -161 -8 -9 -28 -52 -44 -96
-16 -43 -35 -82 -42 -86 -8 -4 -246 -55 -529 -114 -290 -59 -541 -116 -574
-130 -179 -73 -328 -231 -389 -414 -19 -57 -107 -479 -107 -513 0 -45 39 -73
200 -140 586 -244 1152 -383 1790 -438 185 -17 712 -17 900 -1 630 54 1205
195 1790 439 162 68 200 94 200 142 0 26 -65 361 -91 466 -6 28 -30 88 -52
135 -70 145 -223 280 -379 336 -24 8 -270 62 -548 120 -278 57 -514 108 -525
113 -14 6 -30 35 -49 89 -15 44 -36 88 -47 98 -14 13 -19 31 -19 70 0 44 5 59
29 86 82 95 115 178 152 383 24 139 31 162 51 175 78 49 148 157 198 305 40
119 54 217 48 343 -7 125 -30 202 -83 270 l-35 45 0 356 c0 369 -2 384 -45
485 -108 252 -478 507 -895 617 -87 22 -248 33 -303 19z m-34 -842 c149 -67
222 -67 369 -3 46 20 107 41 135 45 178 29 382 -91 433 -256 23 -76 25 -124 8
-207 -11 -54 -11 -64 11 -120 33 -90 49 -161 57 -262 7 -90 7 -90 -13 -72
-102 91 -405 82 -618 -17 -38 -18 -81 -43 -94 -55 -20 -17 -37 -21 -98 -21
-65 0 -78 3 -114 29 -105 76 -282 124 -459 124 -121 -1 -173 -13 -231 -53
l-29 -21 0 40 c0 78 22 197 52 286 29 83 30 93 20 145 -17 80 -15 129 8 204
37 119 156 221 293 251 90 20 165 9 270 -37z m-799 -897 c14 -21 38 -73 55
-116 27 -70 72 -135 93 -135 4 0 8 20 8 45 l0 46 43 -53 c145 -178 364 -221
576 -114 59 30 123 91 141 136 12 29 15 30 71 30 57 0 59 -1 73 -32 23 -50 55
-83 120 -122 81 -49 155 -69 257 -70 80 0 92 2 160 36 83 41 147 92 192 152
l29 41 -5 -47 c-3 -36 -1 -48 9 -48 29 0 78 73 104 155 13 43 61 125 72 125 3
0 9 -33 13 -74 17 -182 -90 -496 -169 -496 -33 0 -73 -34 -85 -73 -5 -17 -22
-106 -36 -197 -34 -208 -52 -254 -122 -331 -61 -65 -252 -228 -320 -271 -66
-43 -158 -70 -260 -76 -111 -6 -195 9 -278 48 -66 31 -278 203 -363 293 -76
82 -96 133 -132 344 -16 100 -34 193 -39 207 -12 30 -48 56 -78 56 -65 0 -173
267 -173 428 0 52 11 152 16 152 2 0 15 -17 28 -39z m574 -1560 c117 -82 232
-113 412 -112 206 1 324 41 473 160 58 46 77 57 77 43 0 -11 -26 -37 -65 -66
-62 -45 -107 -70 -237 -131 -93 -43 -158 -139 -158 -232 l0 -33 -89 0 -88 0
-6 49 c-11 91 -73 178 -153 215 -182 83 -304 163 -304 199 0 16 9 12 53 -25
28 -24 67 -55 85 -67z"/>
<path d="M2347 2713 c-34 -38 -18 -66 48 -81 22 -6 68 -17 102 -27 61 -16 65
-16 163 9 112 27 130 37 130 72 0 42 -36 49 -128 25 -96 -25 -116 -26 -170 -7
-22 8 -60 17 -84 21 -35 5 -47 3 -61 -12z"/>
<path d="M2360 2453 c-24 -2 -50 -9 -57 -15 -17 -14 -17 -53 0 -66 8 -7 100
-11 265 -11 212 0 254 2 267 15 19 19 19 35 2 58 -12 17 -34 19 -223 21 -115
2 -229 1 -254 -2z"/>
<path d="M2436 2254 c-9 -8 -16 -22 -16 -29 0 -36 29 -45 144 -45 118 0 136 6
136 45 0 39 -18 45 -136 45 -89 0 -116 -3 -128 -16z"/>
</g>
</svg>
